<svg xmlns="http://www.w3.org/2000/svg" width="512" height="512" viewBox="0 0 512 512">
  <defs><linearGradient id="bg" x2="1" y2="1"><stop stop-color="#a855f7"/><stop offset="1" stop-color="#d946ef"/></linearGradient></defs>
  <path fill="url(#bg)" d="M0 0h512v512H0z"/>
  <circle cx="336" cy="174" r="36" fill="#fde68a"/>
  <path d="m149 278 100-75 48 25 47 61" fill="none" stroke="#fff" stroke-width="30" stroke-linecap="round" stroke-linejoin="round"/>
  <path d="m245 205-37-43-54 32" fill="none" stroke="#fff" stroke-width="27" stroke-linecap="round" stroke-linejoin="round"/>
  <path d="M107 325c25-27 50-27 75 0s50 27 75 0 50-27 75 0 50 27 75 0M107 371c25-27 50-27 75 0s50 27 75 0 50-27 75 0 50 27 75 0" fill="none" stroke="#f3e8ff" stroke-width="20" stroke-linecap="round"/>
</svg>
